<svg xmlns="http://www.w3.org/2000/svg" version="1.1" xmlns:xlink="http://www.w3.org/1999/xlink" xmlns:svgjs="http://svgjs.dev/svgjs" width="1000" height="194" viewBox="0 0 1000 194"><g transform="matrix(1,0,0,1,-0.6060402746154523,0.07981255406917853)"><svg viewBox="0 0 396 77" data-background-color="#ffffff" preserveAspectRatio="xMidYMid meet" height="194" width="1000" xmlns="http://www.w3.org/2000/svg" xmlns:xlink="http://www.w3.org/1999/xlink"><g id="tight-bounds" transform="matrix(1,0,0,1,0.23999249084818075,-0.031678178676941116)"><svg viewBox="0 0 395.52 77.06335462549997" height="77.06335462549997" width="395.52"><g><svg viewBox="0 0 529.4272015408568 103.15391429189192" height="77.06335462549997" width="395.52"><g transform="matrix(1,0,0,1,133.90720154085682,1.8162652540540662)"><svg viewBox="0 0 395.52 99.52138378378379" height="99.52138378378379" width="395.52"><g id="textblocktransform"><svg viewBox="0 0 395.52 99.52138378378379" height="99.52138378378379" width="395.52" id="textblock"><g><svg viewBox="0 0 395.52 99.52138378378379" height="99.52138378378379" width="395.52"><g transform="matrix(1,0,0,1,0,0)"><svg width="395.52" viewBox="1.100000023841858 -35.04999923706055 184.989990234375 46.54999923706055" height="99.52138378378379" data-palette-color="#000000"><path d="M26.05 0L1.1 0 1.1-0.5 2.25-0.95Q3.1-1.3 3.43-1.88 3.75-2.45 3.75-3.45L3.75-3.45 3.75-29.55Q3.75-30.55 3.48-31.13 3.2-31.7 2.25-32.05L2.25-32.05 1.1-32.5 1.1-33 25.05-33 25.35-25.3 24.85-25.3 22.7-30Q22.25-30.9 21.75-31.45 21.25-32 20.25-32L20.25-32 11.25-32 11.25-17.55 16.6-17.55Q17.6-17.55 18.13-18.07 18.65-18.6 19.05-19.5L19.05-19.5 20.05-21.5 20.55-21.5 20.55-12.5 20.05-12.5 19.05-14.6Q18.6-15.5 18.1-16.03 17.6-16.55 16.6-16.55L16.6-16.55 11.25-16.55 11.25-1 21.35-1Q22.35-1 22.9-1.53 23.45-2.05 23.8-3L23.8-3 25.85-7.7 26.35-7.7 26.05 0ZM37.4 0.75L37.4 0.75Q34.95 0.75 33 0.18 31.05-0.4 29.4-1.25L29.4-1.25 29.45-7.2 29.95-7.2 31.65-4.2Q32.75-2.2 34.07-1.23 35.4-0.25 37.45-0.25L37.45-0.25Q39.85-0.25 41.32-1.33 42.8-2.4 42.8-4.2L42.8-4.2Q42.8-5.85 41.75-6.9 40.7-7.95 37.85-8.8L37.85-8.8 35.75-9.45Q32.7-10.35 30.95-12.25 29.2-14.15 29.2-16.9L29.2-16.9Q29.2-20.2 31.8-22.5 34.4-24.8 39.25-24.8L39.25-24.8Q41.2-24.8 42.92-24.38 44.65-23.95 46.25-23.1L46.25-23.1 45.95-17.7 45.45-17.7 43.7-20.8Q42.75-22.45 41.82-23.13 40.9-23.8 39.05-23.8L39.05-23.8Q37.35-23.8 35.85-22.85 34.35-21.9 34.35-20.15L34.35-20.15Q34.35-18.45 35.62-17.45 36.9-16.45 39.4-15.6L39.4-15.6 41.65-14.95Q45.25-13.85 46.8-11.93 48.35-10 48.35-7.3L48.35-7.3Q48.35-3.65 45.47-1.45 42.6 0.75 37.4 0.75ZM61.4 0.9L61.4 0.9Q58.65 0.9 55.8 0.23 52.95-0.45 51.05-1.55L51.05-1.55 51.3-8.35 51.8-8.35 53.34-5.1Q54.05-3.7 54.84-2.63 55.65-1.55 57.05-0.95L57.05-0.95Q58.05-0.45 58.97-0.28 59.9-0.1 61.05-0.1L61.05-0.1Q64.09-0.1 65.87-1.75 67.65-3.4 67.65-6L67.65-6Q67.65-8.45 66.45-9.83 65.25-11.2 62.59-12.5L62.59-12.5 60.55-13.4Q56.25-15.3 53.82-17.78 51.4-20.25 51.4-24.35L51.4-24.35Q51.4-27.3 52.92-29.45 54.45-31.6 57.17-32.75 59.9-33.9 63.55-33.9L63.55-33.9Q66.2-33.9 68.57-33.2 70.95-32.5 72.7-31.3L72.7-31.3 72.4-25.3 71.9-25.3 69.84-29.05Q69-30.8 68.15-31.53 67.3-32.25 66.2-32.55L66.2-32.55Q65.55-32.75 65-32.83 64.45-32.9 63.59-32.9L63.59-32.9Q61.05-32.9 59.3-31.43 57.55-29.95 57.55-27.45L57.55-27.45Q57.55-24.9 58.9-23.38 60.25-21.85 62.84-20.65L62.84-20.65 65.15-19.65Q69.95-17.55 72.05-15.18 74.15-12.8 74.15-9.05L74.15-9.05Q74.15-4.65 70.82-1.88 67.5 0.9 61.4 0.9ZM89.14-24.8L89.14-24.8Q92.39-24.8 94.69-23.48 96.99-22.15 98.22-19.88 99.44-17.6 99.44-14.7L99.44-14.7Q99.44-14.15 99.39-13.58 99.34-13 99.19-12.55L99.19-12.55 84.29-12.55Q84.34-7.15 86.22-4.78 88.09-2.4 91.79-2.4L91.79-2.4Q94.29-2.4 95.84-3.2 97.39-4 98.74-5.55L98.74-5.55 99.24-5.1Q97.69-2.35 95.12-0.8 92.54 0.75 88.94 0.75L88.94 0.75Q85.39 0.75 82.64-0.78 79.89-2.3 78.34-5.15 76.79-8 76.79-11.95L76.79-11.95Q76.79-16.05 78.59-18.93 80.39-21.8 83.22-23.3 86.04-24.8 89.14-24.8ZM88.99-23.8L88.99-23.8Q87.54-23.8 86.52-22.93 85.49-22.05 84.92-19.83 84.34-17.6 84.29-13.55L84.29-13.55 92.84-13.55Q93.34-19 92.44-21.4 91.54-23.8 88.99-23.8ZM114.04 0L102.09 0 102.09-0.5 102.69-0.7Q104.49-1.3 104.49-3.2L104.49-3.2 104.49-29.95Q104.49-30.95 104.09-31.48 103.69-32 102.69-32.25L102.69-32.25 102.04-32.4 102.04-32.9 111.19-35.05 111.79-34.6 111.59-27.6 111.59-10.5Q111.59-8.65 111.61-6.83 111.64-5 111.64-3.2L111.64-3.2Q111.64-2.2 112.04-1.58 112.44-0.95 113.39-0.65L113.39-0.65 114.04-0.5 114.04 0ZM142.99 11.5L130.84 11.5 130.84 11 131.89 10.75Q133.79 10.2 133.79 8.25L133.79 8.25 133.79-1.7Q132.34-0.6 130.46 0.08 128.59 0.75 126.29 0.75L126.29 0.75Q122.04 0.75 119.24-2.45 116.44-5.65 116.44-11.75L116.44-11.75Q116.44-15.95 117.84-18.85 119.24-21.75 121.71-23.28 124.19-24.8 127.44-24.8L127.44-24.8Q129.64-24.8 131.46-24.15 133.29-23.5 134.69-22.5L134.69-22.5 140.39-24.8 140.89-24.3 140.74-17.55 140.74 8.4Q140.74 10.45 142.54 10.85L142.54 10.85 142.99 11 142.99 11.5ZM129.59-1.25L129.59-1.25Q131.69-1.25 133.64-2.85L133.64-2.85 133.64-21.85Q132.79-22.4 131.89-22.65 130.99-22.9 129.74-22.9L129.74-22.9Q127.09-22.9 125.54-20.33 123.99-17.75 123.99-11.85L123.99-11.85Q123.99-6.1 125.49-3.68 126.99-1.25 129.59-1.25ZM156.24 0L144.49 0 144.49-0.5 145.19-0.7Q146.14-0.95 146.51-1.55 146.89-2.15 146.94-3.15L146.94-3.15 146.94-18.8Q146.94-19.9 146.59-20.43 146.24-20.95 145.24-21.15L145.24-21.15 144.49-21.35 144.49-21.85 153.04-24.75 153.54-24.25 153.94-20.85Q155.59-22.5 157.71-23.65 159.84-24.8 162.14-24.8L162.14-24.8Q164.54-24.8 165.99-23.83 167.44-22.85 168.19-20.8L168.19-20.8Q170.14-22.65 172.41-23.73 174.69-24.8 176.84-24.8L176.84-24.8Q180.39-24.8 182.06-23.1 183.74-21.4 183.74-17.75L183.74-17.75 183.74-3.1Q183.74-1.15 185.54-0.65L185.54-0.65 186.09-0.5 186.09 0 174.54 0 174.54-0.5 175.04-0.65Q175.99-0.95 176.36-1.55 176.74-2.15 176.74-3.15L176.74-3.15 176.74-18.45Q176.74-20.55 175.99-21.33 175.24-22.1 173.59-22.1L173.59-22.1Q172.29-22.1 171.06-21.53 169.84-20.95 168.49-19.8L168.49-19.8Q168.74-19 168.81-18.05 168.89-17.1 168.89-16.05L168.89-16.05 168.89-3.1Q168.94-1.15 170.69-0.65L170.69-0.65 171.14-0.5 171.14 0 159.54 0 159.54-0.5 160.24-0.7Q161.19-1 161.56-1.58 161.94-2.15 161.94-3.15L161.94-3.15 161.94-18.4Q161.94-20.4 161.21-21.25 160.49-22.1 158.74-22.1L158.74-22.1Q157.59-22.1 156.44-21.53 155.29-20.95 154.04-19.85L154.04-19.85 154.04-3.1Q154.04-1.15 155.79-0.65L155.79-0.65 156.24-0.5 156.24 0Z" opacity="1" transform="matrix(1,0,0,1,0,0)" fill="#ffffff" class="wordmark-text-0" data-fill-palette-color="primary" id="text-0"></path></svg></g></svg></g></svg></g></svg></g><g><svg viewBox="0 0 110.41259134271628 103.15391429189192" height="103.15391429189192" width="110.41259134271628"><g><svg xmlns="http://www.w3.org/2000/svg" xmlns:xlink="http://www.w3.org/1999/xlink" version="1.1" x="0" y="0" viewBox="0.00006198883056640625 3.2879886627197266 99.99993896484375 93.4258041381836" enable-background="new 0 0 100 100" xml:space="preserve" width="110.41259134271628" height="103.15391429189192" class="icon-icon-0" data-fill-palette-color="accent" id="icon-0"><g fill="#ffffff" data-fill-palette-color="accent"><g fill="#ffffff" data-fill-palette-color="accent"><path d="M4.652 18.928c0.818-0.101 1.607 0.16 2.291 0.735 0.995 0.836 1.643 2.289 1.732 3.886 0.158 2.862-1.163 5.42-3.068 6.282l7.729-1.71C12.34 21.286 10.49 17.968 8.94 16.367c-1.658-1.712-3.24-1.811-4.021-1.722-2.949 0.336-5.147 4.163-4.9 8.531 0.115 2.044 0.905 3.872 2.113 4.89 0.709 0.597 1.516 0.864 2.313 0.773 1.735-0.2 3.078-2.589 2.933-5.218-0.071-1.243-0.545-2.352-1.271-2.963-0.283-0.237-0.743-0.506-1.305-0.439-0.992 0.115-1.757 1.53-2.255 3.121l-0.13 0.008C1.705 21.083 2.944 19.126 4.652 18.928z" fill="#ffffff" data-fill-palette-color="accent"></path><path d="M89.232 11.192c-1.791 0.89-3.041 1.678-3.041 1.678l0.974-1.502c-4.188 0.439-9.166 1.473-14.667 3.611-0.919 1.396-1.872 3.117-2.178 4.71 0 0-0.186-1.645-0.127-3.762-1.291 0.56-2.596 1.17-3.936 1.866-1.891 0.974-3.555 2.022-5.102 3.103-0.553 2.344-1.143 5.422-0.775 7.048 0 0-0.99-1.89-1.252-5.56-9.658 7.606-12.055 16.506-12.625 19.72-6.906 7.478-11.088 13.261-11.088 13.261s1.904-1.141 3.42-2.028c0 0 2.811-3.856 8.857-10.286 2.439-0.619 7.93-2.368 14.45-6.734-1.252-0.688-2.381-1.57-2.703-2.613 0 0 1.653 0.741 4.703 1.198 2.321-1.686 4.726-3.724 7.143-6.139-2.352-0.713-3.014-1.595-3.014-1.595 0.942 0.265 2.74 0.309 4.33 0.281 0.865-0.911 1.731-1.874 2.59-2.882 1.42-1.672 2.875-3.123 4.346-4.396-1.826-0.405-2.17-0.943-2.17-0.943l4.027-0.542C90.796 11.639 100 11.818 100 11.818S95.875 10.771 89.232 11.192z" fill="#ffffff" data-fill-palette-color="accent"></path><path d="M67.917 72.323l-43.92 9.688c0 0 2.83 1.743 2.91 6.605 0 4.785-3.195 7.964-3.195 7.964l41.99-9.282c3.743-1.008 6.149-4.693 6.153-9.063 0.004-1.984-0.647-3.825-1.742-4.92C69.466 72.668 68.705 72.323 67.917 72.323z" fill="#ffffff" data-fill-palette-color="accent"></path><path d="M25.304 86.416c-1.105-4.061-3.834-3.855-3.834-3.855-1.742 0.099-3.22 2.407-3.226 5.043-0.002 1.246 0.407 2.379 1.099 3.031 0.263 0.25 0.717 0.535 1.273 0.51 1-0.058 1.848-1.428 2.435-2.985h0.131c0.579 2.303-0.769 4.184-2.488 4.282-0.811 0.058-1.593-0.25-2.244-0.861-0.945-0.895-1.508-2.38-1.506-3.979 0.01-3.203 1.832-5.925 4.119-6.289 0.053-0.008 22.671-4.977 36.458-8.004-0.215-3.613-0.008-8.151 0.845-13.896 0.235-1.594 0.456-3.141 0.657-4.645 0.781-5.824 1.302-10.98 1.613-15.569-5.043 3.188-9.686 4.463-12.185 5.146-5.611 6-8.849 10.542-8.849 10.542l-6.543 4.312c0 0-0.973-4.576 12.049-17.922 0.809-3.973 3.661-12.221 13.27-19.788l2.164-1.688c-0.813-7.38-2.582-11.5-4.469-13.704-1.885-2.291-3.92-2.807-5.344-2.809L5.318 13.327c1.107-0.006 2.825 0.35 4.556 2.137 4.313 4.455 8.306 17.489 2.838 54.279-2.311 15.56 0.17 22.073 2.656 24.8 1.88 2.061 3.936 2.208 4.766 2.165C25.47 95.951 25.912 88.652 25.304 86.416z" fill="#ffffff" data-fill-palette-color="accent"></path></g></g></svg></g></svg></g></svg></g><defs></defs></svg><rect width="395.52" height="77.06335462549997" fill="none" stroke="none" visibility="hidden"></rect></g></svg></g></svg>